<svg xmlns="http://www.w3.org/2000/svg" width="300" height="300" viewBox="0 0 300 300">
  <defs>
    <linearGradient id="bg" x1="0%" y1="0%" x2="100%" y2="100%">
      <stop offset="0%" stop-color="#1b3b8f" />
      <stop offset="100%" stop-color="#f49a2a" />
    </linearGradient>
    <linearGradient id="text" x1="0%" y1="0%" x2="100%" y2="100%">
      <stop offset="0%" stop-color="#f6f8ff" />
      <stop offset="100%" stop-color="#ffd26d" />
    </linearGradient>
  </defs>
  <rect width="300" height="300" rx="30" fill="url(#bg)" />
  <circle cx="150" cy="110" r="56" fill="rgba(255,255,255,0.12)" />
  <circle cx="150" cy="110" r="42" fill="rgba(255,255,255,0.24)" />
  <path d="M100 120 C120 70, 180 70, 200 120 C220 170, 160 175, 150 140 C140 105, 80 170, 100 120 Z" fill="rgba(255,255,255,0.16)" />
  <path d="M145 55 L153 55 L153 135 L145 135 Z" fill="#fff" opacity="0.65" />
  <path d="M112 100 C140 80, 160 95, 188 90" stroke="#fff" stroke-width="4" fill="none" opacity="0.8" />
  <path d="M112 120 C140 140, 160 125, 188 130" stroke="#fff" stroke-width="4" fill="none" opacity="0.8" />
  <path d="M150 70 L168 88" stroke="#fff" stroke-width="4" stroke-linecap="round" opacity="0.8" />
  <path d="M150 70 L132 88" stroke="#fff" stroke-width="4" stroke-linecap="round" opacity="0.8" />
  <text x="150" y="220" font-family="Inter, Arial, sans-serif" font-size="30" font-weight="700" text-anchor="middle" fill="url(#text)">Topologist</text>
  <text x="150" y="250" font-family="Inter, Arial, sans-serif" font-size="12" text-anchor="middle" fill="#ffffff" opacity="0.85">Hyperdimensional Intelligence</text>
</svg>
